<mxfile host="app.diagrams.net" modified="2023-04-28T05:46:04.755Z" agent="Mozilla/5.0 (Windows NT 10.0; Win64; x64) AppleWebKit/537.36 (KHTML, like Gecko) Chrome/112.0.0.0 Safari/537.36" etag="rJmHUN9nZpjPK_JvPzQN" version="21.2.3" type="device">
  <diagram name="Page-1" id="mWJY7vG5CInYq02Eun1n">
    <mxGraphModel dx="500" dy="273" grid="1" gridSize="10" guides="1" tooltips="1" connect="1" arrows="1" fold="1" page="1" pageScale="1" pageWidth="850" pageHeight="1100" math="0" shadow="0">
      <root>
        <mxCell id="0" />
        <mxCell id="1" parent="0" />
        <mxCell id="8TC1u6SLxkjU_2H6Sc6n-4" value="" style="edgeStyle=orthogonalEdgeStyle;rounded=0;orthogonalLoop=1;jettySize=auto;html=1;" parent="1" source="8TC1u6SLxkjU_2H6Sc6n-1" target="8TC1u6SLxkjU_2H6Sc6n-3" edge="1">
          <mxGeometry relative="1" as="geometry">
            <Array as="points">
              <mxPoint x="150" y="295" />
            </Array>
          </mxGeometry>
        </mxCell>
        <mxCell id="8TC1u6SLxkjU_2H6Sc6n-7" value="" style="edgeStyle=orthogonalEdgeStyle;rounded=0;orthogonalLoop=1;jettySize=auto;html=1;entryX=0;entryY=0.5;entryDx=0;entryDy=0;" parent="1" source="8TC1u6SLxkjU_2H6Sc6n-1" target="8TC1u6SLxkjU_2H6Sc6n-6" edge="1">
          <mxGeometry relative="1" as="geometry">
            <Array as="points">
              <mxPoint x="150" y="635" />
            </Array>
          </mxGeometry>
        </mxCell>
        <mxCell id="8TC1u6SLxkjU_2H6Sc6n-9" style="edgeStyle=orthogonalEdgeStyle;rounded=0;orthogonalLoop=1;jettySize=auto;html=1;entryX=0;entryY=0.5;entryDx=0;entryDy=0;" parent="1" source="8TC1u6SLxkjU_2H6Sc6n-1" target="8TC1u6SLxkjU_2H6Sc6n-8" edge="1">
          <mxGeometry relative="1" as="geometry" />
        </mxCell>
        <mxCell id="8TC1u6SLxkjU_2H6Sc6n-11" style="edgeStyle=orthogonalEdgeStyle;rounded=0;orthogonalLoop=1;jettySize=auto;html=1;entryX=0;entryY=0.5;entryDx=0;entryDy=0;" parent="1" source="8TC1u6SLxkjU_2H6Sc6n-1" target="8TC1u6SLxkjU_2H6Sc6n-10" edge="1">
          <mxGeometry relative="1" as="geometry" />
        </mxCell>
        <mxCell id="8TC1u6SLxkjU_2H6Sc6n-14" style="edgeStyle=orthogonalEdgeStyle;rounded=0;orthogonalLoop=1;jettySize=auto;html=1;entryX=0;entryY=0.5;entryDx=0;entryDy=0;" parent="1" source="8TC1u6SLxkjU_2H6Sc6n-1" target="8TC1u6SLxkjU_2H6Sc6n-12" edge="1">
          <mxGeometry relative="1" as="geometry">
            <Array as="points">
              <mxPoint x="150" y="825" />
            </Array>
          </mxGeometry>
        </mxCell>
        <mxCell id="8TC1u6SLxkjU_2H6Sc6n-16" style="edgeStyle=orthogonalEdgeStyle;rounded=0;orthogonalLoop=1;jettySize=auto;html=1;entryX=0;entryY=0.5;entryDx=0;entryDy=0;" parent="1" source="8TC1u6SLxkjU_2H6Sc6n-1" target="8TC1u6SLxkjU_2H6Sc6n-15" edge="1">
          <mxGeometry relative="1" as="geometry">
            <Array as="points">
              <mxPoint x="150" y="855" />
            </Array>
          </mxGeometry>
        </mxCell>
        <mxCell id="g93xP3T6X2XRZS7gPt-w-2" style="edgeStyle=orthogonalEdgeStyle;rounded=0;orthogonalLoop=1;jettySize=auto;html=1;entryX=0;entryY=0.5;entryDx=0;entryDy=0;" edge="1" parent="1" source="8TC1u6SLxkjU_2H6Sc6n-1" target="g93xP3T6X2XRZS7gPt-w-1">
          <mxGeometry relative="1" as="geometry" />
        </mxCell>
        <mxCell id="8TC1u6SLxkjU_2H6Sc6n-1" value="root" style="rounded=0;whiteSpace=wrap;html=1;" parent="1" vertex="1">
          <mxGeometry x="100" y="150" width="100" height="30" as="geometry" />
        </mxCell>
        <mxCell id="8TC1u6SLxkjU_2H6Sc6n-18" style="edgeStyle=orthogonalEdgeStyle;rounded=0;orthogonalLoop=1;jettySize=auto;html=1;entryX=0;entryY=0.5;entryDx=0;entryDy=0;" parent="1" source="8TC1u6SLxkjU_2H6Sc6n-3" target="8TC1u6SLxkjU_2H6Sc6n-17" edge="1">
          <mxGeometry relative="1" as="geometry" />
        </mxCell>
        <mxCell id="8TC1u6SLxkjU_2H6Sc6n-21" style="edgeStyle=orthogonalEdgeStyle;rounded=0;orthogonalLoop=1;jettySize=auto;html=1;entryX=0;entryY=0.5;entryDx=0;entryDy=0;" parent="1" source="8TC1u6SLxkjU_2H6Sc6n-3" target="8TC1u6SLxkjU_2H6Sc6n-19" edge="1">
          <mxGeometry relative="1" as="geometry" />
        </mxCell>
        <mxCell id="8TC1u6SLxkjU_2H6Sc6n-22" style="edgeStyle=orthogonalEdgeStyle;rounded=0;orthogonalLoop=1;jettySize=auto;html=1;entryX=0;entryY=0.5;entryDx=0;entryDy=0;" parent="1" source="8TC1u6SLxkjU_2H6Sc6n-3" target="8TC1u6SLxkjU_2H6Sc6n-20" edge="1">
          <mxGeometry relative="1" as="geometry" />
        </mxCell>
        <mxCell id="8TC1u6SLxkjU_2H6Sc6n-3" value="config" style="whiteSpace=wrap;html=1;rounded=0;" parent="1" vertex="1">
          <mxGeometry x="200" y="280" width="110" height="30" as="geometry" />
        </mxCell>
        <mxCell id="8TC1u6SLxkjU_2H6Sc6n-6" value="controllers" style="whiteSpace=wrap;html=1;rounded=0;" parent="1" vertex="1">
          <mxGeometry x="200" y="620" width="110" height="30" as="geometry" />
        </mxCell>
        <mxCell id="8TC1u6SLxkjU_2H6Sc6n-8" value="models" style="whiteSpace=wrap;html=1;rounded=0;" parent="1" vertex="1">
          <mxGeometry x="200" y="700" width="110" height="30" as="geometry" />
        </mxCell>
        <mxCell id="8TC1u6SLxkjU_2H6Sc6n-10" value="routes" style="whiteSpace=wrap;html=1;rounded=0;" parent="1" vertex="1">
          <mxGeometry x="200" y="770" width="110" height="30" as="geometry" />
        </mxCell>
        <mxCell id="8TC1u6SLxkjU_2H6Sc6n-12" value="server.js" style="text;html=1;strokeColor=none;fillColor=none;align=left;verticalAlign=middle;whiteSpace=wrap;rounded=0;" parent="1" vertex="1">
          <mxGeometry x="200" y="810" width="60" height="30" as="geometry" />
        </mxCell>
        <mxCell id="8TC1u6SLxkjU_2H6Sc6n-15" value=".env" style="text;html=1;strokeColor=none;fillColor=none;align=left;verticalAlign=middle;whiteSpace=wrap;rounded=0;" parent="1" vertex="1">
          <mxGeometry x="200" y="840" width="60" height="30" as="geometry" />
        </mxCell>
        <mxCell id="8TC1u6SLxkjU_2H6Sc6n-17" value="controlelrs" style="whiteSpace=wrap;html=1;rounded=0;" parent="1" vertex="1">
          <mxGeometry x="310" y="370" width="110" height="30" as="geometry" />
        </mxCell>
        <mxCell id="8TC1u6SLxkjU_2H6Sc6n-19" value="database" style="whiteSpace=wrap;html=1;rounded=0;" parent="1" vertex="1">
          <mxGeometry x="310" y="430" width="110" height="30" as="geometry" />
        </mxCell>
        <mxCell id="8TC1u6SLxkjU_2H6Sc6n-24" style="edgeStyle=orthogonalEdgeStyle;rounded=0;orthogonalLoop=1;jettySize=auto;html=1;entryX=0;entryY=0.5;entryDx=0;entryDy=0;" parent="1" source="8TC1u6SLxkjU_2H6Sc6n-20" target="8TC1u6SLxkjU_2H6Sc6n-23" edge="1">
          <mxGeometry relative="1" as="geometry" />
        </mxCell>
        <mxCell id="8TC1u6SLxkjU_2H6Sc6n-20" value="models" style="whiteSpace=wrap;html=1;rounded=0;" parent="1" vertex="1">
          <mxGeometry x="310" y="490" width="110" height="30" as="geometry" />
        </mxCell>
        <mxCell id="8TC1u6SLxkjU_2H6Sc6n-23" value="fields" style="whiteSpace=wrap;html=1;rounded=0;" parent="1" vertex="1">
          <mxGeometry x="420" y="550" width="110" height="30" as="geometry" />
        </mxCell>
        <mxCell id="g93xP3T6X2XRZS7gPt-w-1" value="manage.js" style="text;html=1;strokeColor=none;fillColor=none;align=left;verticalAlign=middle;whiteSpace=wrap;rounded=0;" vertex="1" parent="1">
          <mxGeometry x="200" y="870" width="60" height="30" as="geometry" />
        </mxCell>
      </root>
    </mxGraphModel>
  </diagram>
</mxfile>
